<?xml version="1.0" encoding="utf-8" ?><svg xmlns="http://www.w3.org/2000/svg" xmlns:xlink="http://www.w3.org/1999/xlink" width="1024" height="1024" viewBox="0 0 1024 1024"><path fill="#698D61" d="M0 0L1024 0L1024 1024L0 1024L0 0ZM446.128 202.724C431.924 203.428 410.698 206.942 401.047 218.462C398.001 213.296 394.387 208.422 388.681 205.91C365.554 195.726 348.726 219.552 338.163 236.293C337.898 232.593 337.661 229.514 336.678 225.929C329.104 198.321 294.927 195.988 282.214 221.32C274.881 215.831 269.074 210.381 260.26 207.332C229.882 196.82 198.209 225.589 203.838 256.777C206.452 271.265 213.751 276.579 223.15 286.508C215.274 289.708 207.969 294.057 204.922 302.338C196.76 324.512 210.953 341.341 229.757 349.509C218.075 360.461 201.733 372.783 201.334 390.024C200.919 407.961 215.392 420.189 232.822 417.983C233.06 425.081 233.876 427.641 235.966 434.546C214.954 437.709 199.406 453.527 202.777 475.853C204.565 487.7 210.312 493.188 218.45 501.294C196.102 513.746 196.78 538.663 218.035 551.369C210.069 557.978 202.857 563.895 202.29 574.994C201.425 591.921 212.47 600.249 227.974 600.261C227.8 602.406 227.551 604.781 227.515 606.911C215.103 607.012 206.709 610.902 205.477 624.689C204.633 634.143 205.288 643.656 205.45 653.148L205.962 697.382C206.366 729.603 205.894 761.906 206.062 794.214C206.196 820.003 247.028 820.147 264.888 819.636C273.093 819.401 283.96 817.283 291.843 814.88C313.011 821.801 333.531 822.524 353.716 812.09C354.897 813.236 356.904 815.189 358.25 815.956C365.478 820.075 381.256 821.144 389.547 820.905C408.346 820.364 430.282 820.232 447.277 811.73C458.346 820.549 468.369 820.426 482.201 819.187C492.825 818.236 501.238 815.62 510.319 810.068C523.894 825.256 544.249 819.314 557.779 807.683C566.768 819.813 578.078 820.693 591.472 816.588L596.77 814.57C624.1 822.974 650.08 821.462 674.29 805.52C686.235 826.468 707.479 820.207 720.352 804.584C735.692 821.816 755.009 826.179 767.562 802.729C774.815 810.723 781.292 818.532 792.958 818.675C812.355 818.913 820.663 802.773 820.061 785.645C819.955 775.378 816.323 765.981 814.541 755.872C812.453 745.364 814.003 737.083 816.089 726.782C819.471 710.081 820.596 693.59 821.617 676.452C823.496 644.908 825.819 611.165 818.916 580.091C817.032 571.613 811.649 562.373 805.524 556.391C828.947 536.71 832.249 516.87 809.816 494.647C817.31 488.231 823.789 482.404 824.313 471.755C825.057 456.632 816.042 448.813 804.95 441.293C812.211 436.267 820.842 431.505 822.557 422.091C824.392 412.021 818.083 405.522 809.49 402.116C811.504 399.763 813.402 397.529 815.169 394.976C830.973 372.152 815.244 349.275 797.162 333.353C799.794 332.885 802.922 332.496 805.402 331.527C826.253 323.373 826.518 297.985 808.115 286.896C802.849 283.723 798.801 282.677 792.89 281.081C807.926 270.595 818.028 258.444 821.866 240.073C825.114 224.522 817.125 206.792 799.917 204.897C781.227 202.838 766.442 218.344 753.677 229.221C744.289 214.844 728.473 195.14 709.579 208.294C702.963 212.9 701.076 218.756 699.946 226.403C667.538 194.058 609.651 198.797 576.037 226.985C575.367 221.406 574.949 216.404 569.645 213.133C548.948 200.371 498.82 196.716 482.849 218.144C475.143 202.652 461.785 202.848 446.128 202.724Z"/><path fill="#1A2E0E" d="M401.047 218.462C410.698 206.942 431.924 203.428 446.128 202.724C461.785 202.848 475.143 202.652 482.849 218.144C498.82 196.716 548.948 200.371 569.645 213.133C574.949 216.404 575.367 221.406 576.037 226.985C609.651 198.797 667.538 194.058 699.946 226.403C701.076 218.756 702.963 212.9 709.579 208.294C728.473 195.14 744.289 214.844 753.677 229.221C766.442 218.344 781.227 202.838 799.917 204.897C817.125 206.792 825.114 224.522 821.866 240.073C818.028 258.444 807.926 270.595 792.89 281.081C798.801 282.677 802.849 283.723 808.115 286.896C826.518 297.985 826.253 323.373 805.402 331.527C802.922 332.496 799.794 332.885 797.162 333.353C815.244 349.275 830.973 372.152 815.169 394.976C813.402 397.529 811.504 399.763 809.49 402.116C818.083 405.522 824.392 412.021 822.557 422.091C820.842 431.505 812.211 436.267 804.95 441.293C816.042 448.813 825.057 456.632 824.313 471.755C823.789 482.404 817.31 488.231 809.816 494.647C832.249 516.87 828.947 536.71 805.524 556.391C811.649 562.373 817.032 571.613 818.916 580.091C825.819 611.165 823.496 644.908 821.617 676.452C820.596 693.59 819.471 710.081 816.089 726.782C814.003 737.083 812.453 745.364 814.541 755.872C816.323 765.981 819.955 775.378 820.061 785.645C820.663 802.773 812.355 818.913 792.958 818.675C781.292 818.532 774.815 810.723 767.562 802.729C755.009 826.179 735.692 821.816 720.352 804.584C707.479 820.207 686.235 826.468 674.29 805.52C650.08 821.462 624.1 822.974 596.77 814.57L591.472 816.588C578.078 820.693 566.768 819.813 557.779 807.683C544.249 819.314 523.894 825.256 510.319 810.068C501.238 815.62 492.825 818.236 482.201 819.187C468.369 820.426 458.346 820.549 447.277 811.73C430.282 820.232 408.346 820.364 389.547 820.905C381.256 821.144 365.478 820.075 358.25 815.956C356.904 815.189 354.897 813.236 353.716 812.09C333.531 822.524 313.011 821.801 291.843 814.88C283.96 817.283 273.093 819.401 264.888 819.636C247.028 820.147 206.196 820.003 206.062 794.214C205.894 761.906 206.366 729.603 205.962 697.382L205.45 653.148C205.288 643.656 204.633 634.143 205.477 624.689C206.709 610.902 215.103 607.012 227.515 606.911C227.551 604.781 227.8 602.406 227.974 600.261C212.47 600.249 201.425 591.921 202.29 574.994C202.857 563.895 210.069 557.978 218.035 551.369C196.78 538.663 196.102 513.746 218.45 501.294C210.312 493.188 204.565 487.7 202.777 475.853C199.406 453.527 214.954 437.709 235.966 434.546C233.876 427.641 233.06 425.081 232.822 417.983C215.392 420.189 200.919 407.961 201.334 390.024C201.733 372.783 218.075 360.461 229.757 349.509C210.953 341.341 196.76 324.512 204.922 302.338C207.969 294.057 215.274 289.708 223.15 286.508C213.751 276.579 206.452 271.265 203.838 256.777C198.209 225.589 229.882 196.82 260.26 207.332C269.074 210.381 274.881 215.831 282.214 221.32C294.927 195.988 329.104 198.321 336.678 225.929C337.661 229.514 337.898 232.593 338.163 236.293C348.726 219.552 365.554 195.726 388.681 205.91C394.387 208.422 398.001 213.296 401.047 218.462ZM523.831 216.725C514.62 217.331 505.071 218.016 496.884 222.646L496.524 223.248C490.761 233.106 490.428 256.771 489.724 268.545C489.448 273.158 489.879 280.491 488.521 284.873C487.779 285.025 487.4 285.297 486.7 284.876C480.64 281.227 471.011 241.612 469.565 233.119C468.788 228.552 468.376 223.751 467.217 219.275C452.204 214.561 431.843 216.955 417.572 223.243C407.969 227.476 405.915 243.527 404.703 252.885C399.038 296.646 401.313 343.175 414.466 385.461C417.726 395.942 418.992 398.508 429.623 394.693C435.391 392.354 465.853 381.034 467.359 376.963C469.726 370.56 453.471 336.456 458.19 329.104C461.901 327.733 465.965 335.821 467.937 338.553C473.703 346.545 489.187 371.298 498.95 372.888C504.613 373.81 539.413 371.76 536.876 360.784C534.457 350.316 532.845 337.395 532.458 326.278C532.196 296.66 541.702 268.883 554.124 242.38C555.823 238.749 560.759 229.853 560.666 226.21C557.48 218.319 531.302 216.442 523.831 216.725ZM308.068 217.581C298.341 219.753 289.943 227.048 293.316 238.048C296.947 249.888 311.773 261.892 308.434 275.649C308.226 276.414 307.834 276.362 307.023 276.701C299.342 274.233 278.236 222.08 248.984 219.357C244.865 218.974 240.001 219.61 236.295 221.484C227.675 225.845 221.394 232.085 218.441 241.472C216.126 248.83 217.116 255.6 220.732 262.322C229.809 279.194 251.689 291.132 265.646 303.703C267.161 305.068 268.878 306.574 269.346 308.632C268.692 309.333 268.687 309.638 267.285 309.517C251.508 308.111 235.911 290.409 220.443 303.376C217.77 305.616 216.2 310.216 216.322 313.572C216.887 329.011 231.127 338.4 245.585 337.447C256.159 336.75 264.085 332.413 274.164 330.198C275.641 329.893 276.585 330.174 277.867 330.884C278.389 331.968 278.628 332.359 278.123 333.58C276.805 336.759 256.997 347.608 252.872 350.254C241.108 357.799 211.207 378.598 215.739 394.533C216.776 398.182 219.182 401.361 222.631 403.028C226.304 404.804 230.399 404.54 234.129 403.099C254.575 395.199 283.548 342.367 293.421 342.927C294.074 343.486 294.884 344.255 294.516 345.229C290.839 354.972 287.051 364.107 284.137 374.162C280.876 386.686 278.561 398.146 285.468 410.101C293.671 424.302 312.209 418.925 314.764 403.802C315.654 398.374 314.734 392.699 313.632 387.38C311.163 375.453 309.257 363.072 313.137 351.204C313.934 348.766 315.351 344.49 317.717 343.387C319.14 343.873 319.93 344.634 320.525 346.108C325.229 357.726 326.848 376.743 339.95 382.597C348.366 386.358 360.2 379.84 362.802 371.082C368.032 353.483 351.915 343.782 341.332 333.241C339.347 331.422 337.066 328.136 337.446 325.371C338.25 319.514 353.414 326.67 356.506 328.283C378.854 339.946 394.118 308.772 380.852 295.494C374.029 288.664 350.564 301.359 344.733 305.791C341.527 307.787 337.635 310.28 334.075 309.559C333.557 309.004 333.317 308.981 333.308 308.148C333.232 301.441 360.515 276.163 366.459 269.253C374.6 259.791 383.765 248.836 387.59 236.819C389.148 231.924 389.663 226.1 386.044 221.949C383.989 219.592 381.014 218.391 377.924 218.274C372.051 218.051 367.455 221.355 363.47 225.307C352.798 235.894 343.69 251.574 337.381 265.235C334.789 270.848 332.023 280.606 328.019 285.028C327.179 285.956 326.433 286.489 325.163 286.448C324.125 286.416 323.752 286.228 322.901 285.699C315.933 275.811 338.529 218.532 308.068 217.581ZM634.26 217.691C615.437 219.832 599.412 225.548 585.127 238.392C560.981 260.101 545.248 292.754 548.324 325.621C551.671 361.374 585.022 374.936 617.105 368.426C645.197 363.166 671.732 348.764 688.1 324.807C707.79 295.987 714.626 250.905 681.216 229.092C667.137 219.9 651.021 215.926 634.26 217.691ZM720.028 218.022C706.877 225.717 720.443 235.34 724.818 242.864C732.535 256.133 724.549 270.221 715.927 280.477C715.392 281.127 715.837 282.265 716.042 282.933C718.27 284.227 718.593 283.594 720.608 282.104C737.22 269.049 747.882 244.234 733.613 225.187C730.463 220.983 725.341 218.123 720.028 218.022ZM794.901 219.521C769.043 228.326 750.779 260.252 735.881 281.641C731.176 288.398 721.924 299.43 718.5 306.163C721.795 303.825 724.579 301.797 727.71 299.255C735.81 292.381 740.809 288.122 750.229 282.906C768.784 272.656 790.988 267.102 802.244 247.372C804.991 242.557 806.707 238.279 807.386 232.732C808.369 224.7 803.341 218.25 794.901 219.521ZM781.342 294.218C753.862 296.444 725.938 314.911 709.095 336.173C717.226 330.653 722.136 327.144 730.9 322.538C746.786 314.425 764.087 309.56 781.277 316.392C789.929 319.831 803.781 322.789 807.138 311.11C810.587 299.113 789.999 293.295 781.342 294.218ZM746.783 332.211C733.654 332.988 725.248 337.023 714.549 344.58C732.524 339.26 744.154 338.502 761.776 347.716C774.511 354.375 780.457 362.682 784.647 376.104C785.228 379.327 785.336 393.357 790.969 390.935C802.303 386.062 805.128 374.99 801.289 363.972C793.505 341.626 769.112 330.788 746.783 332.211ZM386.137 354.824C379.288 364.7 389.222 380.119 378.382 394.263C369.697 405.596 348.31 405.672 346.782 412.16C347.764 416.166 352.552 417.803 356.138 418.623C366.1 419.691 374.364 418.072 382.331 411.63C396.766 399.959 396.918 384.648 393.387 367.808C392.341 362.822 392.849 354.718 386.137 354.824ZM673.177 364.327C664.263 389.162 650.455 409.019 624.73 418.323C615.161 421.784 618.052 425.859 622.615 431.958C632.137 440.877 649.329 424.236 655.899 417.461C666.335 406.698 678.145 379.015 673.177 364.327ZM734.697 364.627C731.998 365.045 728.858 365.564 726.622 366.993C709.031 378.234 723.261 383.807 732.22 389.369C747.128 398.624 747.8 419.756 740.47 434.237C734.151 421.372 726.377 409.335 715.563 399.751C712.739 397.248 711.05 396.385 707.432 394.958C702.86 393.154 693.561 394.24 692.237 399.913C690.567 407.069 699.523 414.39 703.45 419.555C712.307 430.355 714.489 443.157 710.612 456.467C704.276 445.393 689.995 427.991 676.927 425.329C671.982 426.517 668.875 427.591 666.21 432.407C661.455 440.997 671.934 447.978 678.277 451.738C685.779 456.185 691.807 460.742 697.842 467.049C686.218 466.765 657.136 462.101 658.19 479.221C659.645 502.85 686.94 484.417 698.326 480.814L699.315 480.491C691.977 494.409 684.696 507.484 675.836 520.534C672.152 525.959 665.946 534.012 668.478 540.76C672.843 551.327 681.381 550.704 687.901 542.209C696.481 531.03 701.628 514.388 712.47 505.365C714.114 504.7 714.605 504.331 716.36 504.635C717.838 505.527 718.435 506.327 718.764 508.028C721.299 521.143 708.37 545.243 722.468 554.621C732.254 561.131 743.051 554.593 742.472 542.261C741.945 531.05 737.797 521.432 737.028 510.547C746.098 522.064 766.432 551.302 780.1 552.017C801.539 553.137 818.964 522.401 800.901 505.249C791.298 496.131 782.669 490.006 772.668 482.538L773.391 482.631C783.07 483.94 794.891 490.962 802.831 483.48C819.209 468.047 803.229 448.707 784.432 448.672C775.745 448.655 768.818 450.884 760.836 451.455L761.419 451.042C773.665 442.483 789.736 437.662 801.714 428.04C814.181 418.024 806.24 413.218 793.97 413.968C778.77 414.897 768.093 420.89 755.574 428.742C761.577 413.081 766.77 398.417 759.78 381.886C755.492 371.743 745.974 364.406 734.697 364.627ZM660.006 366.091C653.086 370.491 647.795 374.69 639.76 378.907C622.277 388.085 603.163 385.574 584.917 382.459C583.256 382.176 579.233 388.253 586.335 392.929C599.575 399.048 613.572 400.872 627.597 395.931C638.317 392.155 656.95 377.815 660.287 366.713L660.006 366.091ZM529.185 387.376C550.99 403.226 561.039 423.388 570.169 447.82C580.317 445.347 592.408 442.425 602.378 439.336L609.802 437.303C589.352 409.708 565.611 394.092 530.839 387.489C530.328 387.391 529.708 387.389 529.185 387.376ZM479.323 389.514C453.564 396.99 434.445 405.949 415.058 425.68C411.272 429.534 405.244 436.522 402.398 441.107C405.326 441.911 408.314 442.699 411.225 443.544C421.266 446.338 431.347 448.536 441.205 451.26C447.93 429.785 458.598 410.028 475.177 394.6C476.751 393.135 479.112 391.357 480.38 389.757C480.028 389.676 479.675 389.595 479.323 389.514ZM500.127 392.438C475.977 403.271 462.564 428.595 453.578 452.14L453.32 452.822L458.186 453.672C472.86 455.773 486.415 457.061 501.327 457.021C501.382 441.419 501.195 410.185 501.016 393.223C500.826 392.983 500.636 392.743 500.446 392.502L500.127 392.438ZM513.289 392.493C513.306 413.46 512.729 436.001 513.205 456.774C528.2 456.8 538.058 455.207 552.659 452.121L558.819 450.74C551.035 429.448 535.551 401.358 513.289 392.493ZM407.873 409.318C395.626 417.211 385.249 432.042 371.745 439.188C365.992 442.233 357.412 448.04 365.838 454.133C372.854 455.262 381.128 448.129 385.056 443.25C388.777 438.628 409.512 415.485 410.139 411.752C409.517 410.218 409.251 410.232 407.873 409.318ZM253.56 412.088C250.978 413.271 249.538 413.867 247.925 416.345C239.774 428.867 283.731 467.375 274.078 475.81C266.144 474.816 257.303 449.319 236 450.054C231.599 450.206 227.598 451.396 224.073 454.081C220.27 456.978 216.672 462.08 216.103 466.921C215.362 473.224 218.144 480.465 222.151 485.313C225.201 489.004 228.857 492.239 232.888 494.821C236.871 497.374 252.672 503.537 253.878 507.206C249.606 510.756 229.499 503.453 220.382 515.451C210.055 529.042 220.413 540.392 234.916 541.925C243.716 542.722 264.005 532.608 268.113 533.976C269.02 535.24 268.812 534.525 268.531 536.248C266.016 539.67 258.628 542.525 254.708 544.78C246.137 549.644 237.587 554.582 229.436 560.135C223.783 564 214.981 570.39 216.234 578.188C217.142 583.84 224.321 587.286 229.541 585.522C242.987 580.979 253.541 569.203 264.496 560.658C267.934 557.977 274.613 550.803 278.964 552.393C280.575 554.855 278.803 557.975 277.593 560.199C273.252 568.182 269.839 578.211 268.662 587.124C266.606 602.682 275.595 633.134 296.414 627.27C299.192 626.491 303.081 622.367 303.421 619.425C304.291 614.641 298.169 610.788 295.754 607.349C291.738 601.969 289.318 595.274 288.653 588.643C288.336 582.056 289.477 561.66 297.64 560.287C299.552 561.142 300.144 562.713 300.865 564.549C302.551 568.844 303.39 573.521 304.8 577.92C307.911 587.63 314.055 599.798 323.712 604.352C327.936 606.344 333.137 607.153 337.58 605.434C340.665 604.24 343.653 601.87 344.942 598.748C345.977 596.24 345.746 593.521 344.621 591.088C342.99 587.561 339.928 584.679 337.404 581.783C330.802 574.208 323.152 565.446 319.729 555.917C319.127 554.24 318.204 551.615 318.899 549.837C319.147 549.204 319.511 548.709 320.179 548.546C326.627 546.98 346.573 571.971 358.744 555.129C360.823 552.252 361.761 548.852 361.184 545.337C360.499 541.166 358.213 538.876 354.794 536.54C351.452 534.256 347.691 532.592 343.862 531.311C339.788 529.947 325.956 528.073 324.258 523.89C326.352 521.791 334.29 518.704 337.043 517.633C347.461 513.583 364.321 499.858 362.905 487.396C359.979 461.65 339.952 473.873 329.401 486.061C327.415 488.355 323.107 492.654 320.71 491.379C316.563 485.262 323.32 467.248 326.992 461.133C331.191 454.138 350.844 437.848 332.147 433.876C319.558 431.202 308.805 445.808 304.777 456.032C302.127 462.761 304.325 481.256 299.787 485.432C295.255 485.728 292.842 470.53 291.457 466.76C285.329 450.088 276.388 410.973 253.56 412.088ZM615.435 447.601C603.02 450.84 585.142 456.489 573.354 458.854C576.484 471.73 579.526 491.052 579.52 504.334L593.875 505.414C606.102 505.904 620.801 506.992 632.903 508.378C632.278 490.772 627.454 473.477 620.722 457.283C619.749 454.942 617.6 449.547 615.952 447.764L615.435 447.601ZM394.898 451.917C383.866 472.474 380.478 490.441 379.152 513.478C391.485 511.604 403.993 509.722 416.417 508.644L433.705 506.955C433.571 492.71 435.038 476.632 438.379 462.868C424.138 459.316 409.109 455.215 394.898 451.917ZM561.519 461.675C545.394 465.055 529.547 468.477 512.991 468.657L513.293 503.557L519.375 503.585L567.574 504.046C567.611 498.516 564.472 464.131 561.519 461.675ZM450.429 464.884C447.276 479.299 445.909 491.27 445.899 506.114C460.534 504.408 479.632 504.055 494.375 503.705L501.36 503.539L501.256 468.757C483.929 468.213 467.638 466.974 450.429 464.884ZM648.746 495.629C648.665 501.569 649.289 507.666 649.104 513.444C648.235 540.654 639.273 566.606 623.273 588.601C621.095 591.595 618.128 595.701 616.262 598.861C618.352 598.032 621.295 596.967 623.247 596.001C636.161 589.421 647.85 561.321 652.966 548.64C657.203 538.14 660.608 501.806 648.746 495.629ZM485.653 515.215C472.172 515.765 459.634 516.471 446.16 517.586C446.582 533.424 447.558 540.782 450.294 556.377C453.509 555.619 456.856 554.779 460.076 554.109C474.515 551.444 486.515 550.076 501.314 549.524C501.221 538.002 501.148 526.608 501.269 515.084C496.443 515.108 490.376 514.979 485.653 515.215ZM513.29 514.965L513.18 549.459C527.485 550.279 546.952 552.182 560.926 555.267L562.044 550.81C564.408 538.44 565.334 527.908 566.937 515.523C549.466 514.759 530.799 514.784 513.29 514.965ZM578.579 515.783C578.007 530.35 575.348 543.343 572.165 557.534C587.053 560.839 603.513 566.173 617.814 571.575C618.971 569.093 620.115 566.592 621.325 564.136C629.233 547.699 631.61 537.983 633.43 519.939C614.241 517.781 597.73 516.621 578.579 515.783ZM428.728 518.68C412.915 520.712 395.528 522.81 379.811 525.479C382.541 547.6 384.436 555.321 393.349 575.812L394.179 576.831C395.608 576.687 400.585 574.159 402.061 573.415C413.945 567.422 426.548 563.681 438.992 559.14C435.346 545.313 434.447 532.479 433.99 518.304C432.881 518.377 429.654 518.507 428.728 518.68ZM493.455 561.712C476.52 563.007 469.879 564.434 453.558 567.924C458.675 584.431 466.2 599.07 477.229 612.424C485.906 621.358 489.763 623.529 501.228 628.523L501.374 561.492C498.912 561.539 495.859 561.507 493.455 561.712ZM513.351 561.386C513.504 582.748 512.312 606.909 512.961 627.746C523.677 623.327 531.031 616.433 538.082 607.456C546.993 594.606 553.007 581.032 557.761 566.213C541.64 563.338 529.798 561.497 513.351 561.386ZM687.193 561.631C670.359 564.633 656.589 573.301 646.566 587.275C653.177 585.69 659.45 583.054 665.875 580.749C676.522 577.161 686.506 574.731 697.802 574.218C700.926 574.076 707.649 573.124 709.86 570.987C709.962 563.245 693.503 560.694 687.193 561.631ZM790.747 566.495C783.262 570.752 780.54 578.659 778.364 586.576C769.574 618.548 769.485 708.48 786.109 737.452C787.808 740.413 789.466 742.469 792.646 743.785C802.058 739.675 803.622 722.582 805.063 713.122C807.959 694.112 821.645 566.328 790.747 566.495ZM569.428 568.856C561.676 594.29 549.919 618.551 527.717 634.265C539.272 630.546 546.509 627.697 557.68 622.658C578.495 612.396 595.897 600.446 609.908 581.457C595.607 575.999 584.306 572.767 569.428 568.856ZM372.487 570.312C361.409 580.359 364.4 604.126 374.576 614.177C382.86 622.36 391.334 625.321 402.666 626.222C404.574 626.192 406.523 626.39 408.116 625.453C408.053 623.696 400.76 618.744 399.16 617.497C385.006 606.47 380.528 591.336 378.18 574.322C377.725 571.026 375.638 570.414 372.487 570.312ZM440.624 571.52C427.7 575.553 411.691 581.405 400.319 588.672C413.639 607.152 429.299 618.63 450.748 626.518C463.61 631.055 471.055 631.987 483.947 634.599C462.208 620.055 450.293 595.859 441.766 571.868C441.609 571.425 440.959 571.508 440.624 571.52ZM733.16 580.666C724.915 581.891 717.594 584.251 709.667 586.824C691.367 592.765 693.679 590.724 694.646 608.102C697.198 654.41 692.037 701.844 686.963 747.879C685.288 763.082 681.333 778.511 684.064 793.706C687.117 810.69 703.355 805.972 709.488 793.445C718.967 774.085 717.076 753.162 718.299 732.359C718.851 731.99 719.403 731.621 719.955 731.253L720.925 731.317C721.585 732.354 721.45 731.92 721.622 733.111C724.145 751.037 724.149 769.773 728.131 787.416C729.769 794.675 734.999 806.583 743.937 805.462C747.406 805.077 751.508 802.58 753.521 799.702C763.181 785.338 757.674 758.725 754.954 742.919L750.054 715.875C749.252 711.657 747.615 704.328 747.216 700.254C751.463 693.334 756.06 684.674 758.172 676.779C763.986 655.036 765.133 629.042 760.163 607.033C756.94 592.763 749.867 579.199 733.16 580.666ZM246.589 592.743C237.896 600.943 241.031 616.425 249.794 623.448C252.063 623.925 251.089 624.111 252.901 623.41C253.982 621.263 251.971 612.471 251.552 609.074C250.948 604.177 251.532 594.909 246.589 592.743ZM675.087 594.642C668.907 595.547 626.002 610.154 621.836 613.976C620.141 617.72 620.462 632.564 620.388 637.531C619.635 688.304 611.335 738.408 605.546 788.732C603.066 810.206 642.774 800.721 652.953 795.55C670.125 787.23 676.128 776.324 678.35 758.026C679.288 751.991 681.59 731.259 678.2 726.874C673.811 727.309 660.541 752.231 633.902 746.081L636.87 718.391C647.597 716.472 658.544 714.685 666.082 705.315C672.788 696.978 677.562 658.103 658.849 663.392C654.262 664.688 646.368 667.882 641.3 669.594C641.557 662.041 642.049 655.11 642.657 647.57C651.665 644.331 660.664 641.53 670.258 640.615C672.744 640.164 680.115 641.659 682.086 640.871C687.112 638.864 687.582 626.942 687.556 622.519C687.509 614.67 686.56 593.732 675.087 594.642ZM334.291 624.027C332.535 625.793 332.832 625.04 332.228 627.237C332.87 630.283 337.146 633.209 339.812 634.91C366.289 651.799 402.976 651.125 432.977 645.686C434.518 645.406 437.651 644.672 439.13 644.22C441.198 643.466 442.96 643.058 444.526 641.567L444.409 640.716C436.323 636.263 421.173 639.176 412.641 639.816C395.675 641.089 378.36 638.565 362.277 633.162C354.204 630.494 342.39 623.129 334.291 624.027ZM584.628 625.671C576.497 626.8 545.437 635.838 541.657 641.851C545.58 677.25 540.175 714.619 531.623 749.002C528.961 761.209 522.674 773.185 521.32 785.586C519.225 804.768 535.153 812.345 546.995 795.768C558.181 780.11 557.353 763.047 560.612 745.517L560.977 743.979L561.647 743.628C570.819 750.36 558.743 793.632 573.816 802.466C581.977 807.249 586.608 804.725 592.47 797.185C604.717 776.115 597.575 743.397 588.898 722.562C593.412 716.586 598.491 709.833 601.646 703.009C608.973 687.164 613.512 667.559 611.446 650.075C609.69 635.219 600.78 624.237 584.628 625.671ZM223.444 626.6C220.594 628.41 220.136 629.182 218.463 632.114L219.54 732.619L220.107 766.005C220.266 773.011 219.705 791.536 224.421 796.801C231.238 804.411 246.658 806.317 256.285 806.084C270.586 805.488 288.629 802.653 299.624 792.737C304.701 788.159 305.102 779.247 304.679 772.955C304.188 765.642 305.14 761.828 297.755 758.582C286.778 760.928 257.727 768.746 251.34 755.468C245.598 739.086 250.19 735.639 265.841 738.4C272.382 739.555 280.643 739.256 287.023 737.179C292.639 720.388 288.093 706.842 270.798 703.25C264.022 701.843 252.793 699.454 249.078 693.792C247.598 691.413 246.575 685.714 247.249 683.02C249.985 680.285 253.951 681.53 257.288 682.694C267.5 686.255 278.268 690.163 288.171 694.374C305.321 701.843 302.059 687.032 302.998 675.886C303.154 672.588 301.892 665.173 299.03 663.287C279.633 650.509 254.533 647.14 236.74 631.094C231.494 626.363 230.055 626.018 223.444 626.6ZM503.74 647.678C490.374 649.218 480.084 657.767 471.945 668.135C451.311 694.419 443.573 732.838 447.359 765.689C448.72 777.505 453.032 794.365 463.127 801.683C467.736 805.025 470.096 805.35 475.318 805.931C487.145 804.358 498.262 796.273 505.049 786.534C525.41 757.314 534.057 717.209 530.683 681.981C529.281 667.34 520.959 647.584 503.74 647.678ZM428.747 665.209C425.424 665.59 402.491 667.809 401.746 670.217C398.687 680.934 400.103 691.617 398.161 702.879C395.733 716.952 394.206 728.124 392.831 742.76C390.836 764.007 402.647 781.529 403.485 802.294C403.782 809.65 425.762 804.479 431.003 802.691C443.846 797.102 445.907 794.511 443.175 780.307C442.685 777.758 441.296 756.73 439.241 756.965C434.627 757.492 427.707 767.222 421.665 762.742C418.585 759.969 418.846 753.688 418.892 750.081C419.123 731.803 425.039 714.339 430.043 696.974C431.806 690.855 443.286 663.082 428.747 665.209ZM312.897 665.559C310.534 667.063 308.039 669.1 307.91 672.124C307.249 687.652 307.977 705.706 317.892 718.594C328.104 731.869 334.574 734.569 322.133 749.704C313.428 760.296 309.976 778.961 307.516 792.242C303.524 811.029 331.692 806.456 340.795 800.887C351.052 795.311 343.669 758.903 352.186 759.518C359.954 766.781 353.639 808.482 378.751 805.814C384.039 805.252 385.295 805.342 390.638 803.59C392.318 802.766 394.836 801.715 395.27 799.683C397.357 789.911 390.322 774.287 386.362 765.806C382.027 756.521 368.327 742.786 371.292 733.669C373.576 727.149 378.4 722.126 381.971 716.261C388.692 705.225 395.309 687.919 390.95 675.115C388.039 666.561 369.544 668.795 363.259 671.495C359.914 672.932 357.642 677.384 356.854 680.669C353.666 690.057 356.302 710.101 351.034 717.049L349.929 717.533C343.758 714.134 344.161 682.742 341.148 675.257C337.516 666.236 321.46 664.878 312.897 665.559ZM786.645 757.561C781.171 758.887 777.155 760.737 774.183 765.941C767.492 777.658 774.021 796.441 785.522 802.85C788.052 804.26 790.779 804.662 793.588 805.036C817.277 801.312 808.957 756.803 786.645 757.561Z"/><path fill="#698D61" d="M496.884 222.646C505.071 218.016 514.62 217.331 523.831 216.725C531.302 216.442 557.48 218.319 560.666 226.21C560.759 229.853 555.823 238.749 554.124 242.38C541.702 268.883 532.196 296.66 532.458 326.278C532.845 337.395 534.457 350.316 536.876 360.784C539.413 371.76 504.613 373.81 498.95 372.888C489.187 371.298 473.703 346.545 467.937 338.553C465.965 335.821 461.901 327.733 458.19 329.104C453.471 336.456 469.726 370.56 467.359 376.963C465.853 381.034 435.391 392.354 429.623 394.693C418.992 398.508 417.726 395.942 414.466 385.461C401.313 343.175 399.038 296.646 404.703 252.885C405.915 243.527 407.969 227.476 417.572 223.243C431.843 216.955 452.204 214.561 467.217 219.275C468.376 223.751 468.788 228.552 469.565 233.119C471.011 241.612 480.64 281.227 486.7 284.876C487.4 285.297 487.779 285.025 488.521 284.873C489.879 280.491 489.448 273.158 489.724 268.545C490.428 256.771 490.761 233.106 496.524 223.248L496.884 222.646Z"/><path fill="#2A7A17" d="M284.137 374.162C287.051 364.107 290.839 354.972 294.516 345.229C294.884 344.255 294.074 343.486 293.421 342.927C283.548 342.367 254.575 395.199 234.129 403.099C230.399 404.54 226.304 404.804 222.631 403.028C219.182 401.361 216.776 398.182 215.739 394.533C211.207 378.598 241.108 357.799 252.872 350.254C256.997 347.608 276.805 336.759 278.123 333.58C278.628 332.359 278.389 331.968 277.867 330.884C276.585 330.174 275.641 329.893 274.164 330.198C264.085 332.413 256.159 336.75 245.585 337.447C231.127 338.4 216.887 329.011 216.322 313.572C216.2 310.216 217.77 305.616 220.443 303.376C235.911 290.409 251.508 308.111 267.285 309.517C268.687 309.638 268.692 309.333 269.346 308.632C268.878 306.574 267.161 305.068 265.646 303.703C251.689 291.132 229.809 279.194 220.732 262.322C217.116 255.6 216.126 248.83 218.441 241.472C221.394 232.085 227.675 225.845 236.295 221.484C240.001 219.61 244.865 218.974 248.984 219.357C278.236 222.08 299.342 274.233 307.023 276.701C307.834 276.362 308.226 276.414 308.434 275.649C311.773 261.892 296.947 249.888 293.316 238.048C289.943 227.048 298.341 219.753 308.068 217.581C338.529 218.532 315.933 275.811 322.901 285.699C323.752 286.228 324.125 286.416 325.163 286.448C326.433 286.489 327.179 285.956 328.019 285.028C332.023 280.606 334.789 270.848 337.381 265.235C343.69 251.574 352.798 235.894 363.47 225.307C367.455 221.355 372.051 218.051 377.924 218.274C381.014 218.391 383.989 219.592 386.044 221.949C389.663 226.1 389.148 231.924 387.59 236.819C383.765 248.836 374.6 259.791 366.459 269.253C360.515 276.163 333.232 301.441 333.308 308.148C333.317 308.981 333.557 309.004 334.075 309.559C337.635 310.28 341.527 307.787 344.733 305.791C350.564 301.359 374.029 288.664 380.852 295.494C394.118 308.772 378.854 339.946 356.506 328.283C353.414 326.67 338.25 319.514 337.446 325.371C337.066 328.136 339.347 331.422 341.332 333.241C351.915 343.782 368.032 353.483 362.802 371.082C360.2 379.84 348.366 386.358 339.95 382.597C326.848 376.743 325.229 357.726 320.525 346.108C319.93 344.634 319.14 343.873 317.717 343.387C315.351 344.49 313.934 348.766 313.137 351.204C309.257 363.072 311.163 375.453 313.632 387.38C314.734 392.699 315.654 398.374 314.764 403.802C312.209 418.925 293.671 424.302 285.468 410.101C278.561 398.146 280.876 386.686 284.137 374.162Z"/><path fill="#698D61" d="M617.105 368.426C585.022 374.936 551.671 361.374 548.324 325.621C545.248 292.754 560.981 260.101 585.127 238.392C599.412 225.548 615.437 219.832 634.26 217.691C651.021 215.926 667.137 219.9 681.216 229.092C714.626 250.905 707.79 295.987 688.1 324.807C671.732 348.764 645.197 363.166 617.105 368.426ZM637.286 264.198C615.191 265.938 600.922 288.443 601.738 309.732C602.111 319.461 609.216 323.627 618.248 324.545C639.718 320.455 654.897 295.496 652.401 274.228C651.523 266.75 644.098 263.901 637.286 264.198Z"/><path fill="#2A7A17" d="M720.608 282.104C718.593 283.594 718.27 284.227 716.042 282.933C715.837 282.265 715.392 281.127 715.927 280.477C724.549 270.221 732.535 256.133 724.818 242.864C720.443 235.34 706.877 225.717 720.028 218.022C725.341 218.123 730.463 220.983 733.613 225.187C747.882 244.234 737.22 269.049 720.608 282.104Z"/><path fill="#2A7A17" d="M718.5 306.163C721.924 299.43 731.176 288.398 735.881 281.641C750.779 260.252 769.043 228.326 794.901 219.521C803.341 218.25 808.369 224.7 807.386 232.732C806.707 238.279 804.991 242.557 802.244 247.372C790.988 267.102 768.784 272.656 750.229 282.906C740.809 288.122 735.81 292.381 727.71 299.255C724.579 301.797 721.795 303.825 718.5 306.163Z"/><path fill="#1A2E0E" d="M618.248 324.545C609.216 323.627 602.111 319.461 601.738 309.732C600.922 288.443 615.191 265.938 637.286 264.198C644.098 263.901 651.523 266.75 652.401 274.228C654.897 295.496 639.718 320.455 618.248 324.545Z"/><path fill="#2A7A17" d="M709.095 336.173C725.938 314.911 753.862 296.444 781.342 294.218C789.999 293.295 810.587 299.113 807.138 311.11C803.781 322.789 789.929 319.831 781.277 316.392C764.087 309.56 746.786 314.425 730.9 322.538C722.136 327.144 717.226 330.653 709.095 336.173Z"/><path fill="#2A7A17" d="M714.549 344.58C725.248 337.023 733.654 332.988 746.783 332.211C769.112 330.788 793.505 341.626 801.289 363.972C805.128 374.99 802.303 386.062 790.969 390.935C785.336 393.357 785.228 379.327 784.647 376.104C780.457 362.682 774.511 354.375 761.776 347.716C744.154 338.502 732.524 339.26 714.549 344.58Z"/><path fill="#2A7A17" d="M356.138 418.623C352.552 417.803 347.764 416.166 346.782 412.16C348.31 405.672 369.697 405.596 378.382 394.263C389.222 380.119 379.288 364.7 386.137 354.824C392.849 354.718 392.341 362.822 393.387 367.808C396.918 384.648 396.766 399.959 382.331 411.63C374.364 418.072 366.1 419.691 356.138 418.623Z"/><path fill="#2A7A17" d="M622.615 431.958C618.052 425.859 615.161 421.784 624.73 418.323C650.455 409.019 664.263 389.162 673.177 364.327C678.145 379.015 666.335 406.698 655.899 417.461C649.329 424.236 632.137 440.877 622.615 431.958Z"/><path fill="#2A7A17" d="M740.47 434.237C747.8 419.756 747.128 398.624 732.22 389.369C723.261 383.807 709.031 378.234 726.622 366.993C728.858 365.564 731.998 365.045 734.697 364.627C745.974 364.406 755.492 371.743 759.78 381.886C766.77 398.417 761.577 413.081 755.574 428.742C768.093 420.89 778.77 414.897 793.97 413.968C806.24 413.218 814.181 418.024 801.714 428.04C789.736 437.662 773.665 442.483 761.419 451.042L760.836 451.455C768.818 450.884 775.745 448.655 784.432 448.672C803.229 448.707 819.209 468.047 802.831 483.48C794.891 490.962 783.07 483.94 773.391 482.631L772.668 482.538C782.669 490.006 791.298 496.131 800.901 505.249C818.964 522.401 801.539 553.137 780.1 552.017C766.432 551.302 746.098 522.064 737.028 510.547C737.797 521.432 741.945 531.05 742.472 542.261C743.051 554.593 732.254 561.131 722.468 554.621C708.37 545.243 721.299 521.143 718.764 508.028C718.435 506.327 717.838 505.527 716.36 504.635C714.605 504.331 714.114 504.7 712.47 505.365C701.628 514.388 696.481 531.03 687.901 542.209C681.381 550.704 672.843 551.327 668.478 540.76C665.946 534.012 672.152 525.959 675.836 520.534C684.696 507.484 691.977 494.409 699.315 480.491L698.326 480.814C686.94 484.417 659.645 502.85 658.19 479.221C657.136 462.101 686.218 466.765 697.842 467.049C691.807 460.742 685.779 456.185 678.277 451.738C671.934 447.978 661.455 440.997 666.21 432.407C668.875 427.591 671.982 426.517 676.927 425.329C689.995 427.991 704.276 445.393 710.612 456.467C714.489 443.157 712.307 430.355 703.45 419.555C699.523 414.39 690.567 407.069 692.237 399.913C693.561 394.24 702.86 393.154 707.432 394.958C711.05 396.385 712.739 397.248 715.563 399.751C726.377 409.335 734.151 421.372 740.47 434.237Z"/><path fill="#2A7A17" d="M586.335 392.929C579.233 388.253 583.256 382.176 584.917 382.459C603.163 385.574 622.277 388.085 639.76 378.907C647.795 374.69 653.086 370.491 660.006 366.091L660.287 366.713C656.95 377.815 638.317 392.155 627.597 395.931C613.572 400.872 599.575 399.048 586.335 392.929Z"/><path fill="#517A17" d="M570.169 447.82C561.039 423.388 550.99 403.226 529.185 387.376C529.708 387.389 530.328 387.391 530.839 387.489C565.611 394.092 589.352 409.708 609.802 437.303L602.378 439.336C592.408 442.425 580.317 445.347 570.169 447.82Z"/><path fill="#517A17" d="M402.398 441.107C405.244 436.522 411.272 429.534 415.058 425.68C434.445 405.949 453.564 396.99 479.323 389.514C479.675 389.595 480.028 389.676 480.38 389.757C479.112 391.357 476.751 393.135 475.177 394.6C458.598 410.028 447.93 429.785 441.205 451.26C431.347 448.536 421.266 446.338 411.225 443.544C408.314 442.699 405.326 441.911 402.398 441.107Z"/><path fill="#517A17" d="M453.32 452.822L453.578 452.14C462.564 428.595 475.977 403.271 500.127 392.438L500.446 392.502C500.636 392.743 500.826 392.983 501.016 393.223C501.195 410.185 501.382 441.419 501.327 457.021C486.415 457.061 472.86 455.773 458.186 453.672L453.32 452.822Z"/><path fill="#517A17" d="M513.205 456.774C512.729 436.001 513.306 413.46 513.289 392.493C535.551 401.358 551.035 429.448 558.819 450.74L552.659 452.121C538.058 455.207 528.2 456.8 513.205 456.774Z"/><path fill="#2A7A17" d="M365.838 454.133C357.412 448.04 365.992 442.233 371.745 439.188C385.249 432.042 395.626 417.211 407.873 409.318C409.251 410.232 409.517 410.218 410.139 411.752C409.512 415.485 388.777 438.628 385.056 443.25C381.128 448.129 372.854 455.262 365.838 454.133Z"/><path fill="#2A7A17" d="M288.653 588.643C289.318 595.274 291.738 601.969 295.754 607.349C298.169 610.788 304.291 614.641 303.421 619.425C303.081 622.367 299.192 626.491 296.414 627.27C275.595 633.134 266.606 602.682 268.662 587.124C269.839 578.211 273.252 568.182 277.593 560.199C278.803 557.975 280.575 554.855 278.964 552.393C274.613 550.803 267.934 557.977 264.496 560.658C253.541 569.203 242.987 580.979 229.541 585.522C224.321 587.286 217.142 583.84 216.234 578.188C214.981 570.39 223.783 564 229.436 560.135C237.587 554.582 246.137 549.644 254.708 544.78C258.628 542.525 266.016 539.67 268.531 536.248C268.812 534.525 269.02 535.24 268.113 533.976C264.005 532.608 243.716 542.722 234.916 541.925C220.413 540.392 210.055 529.042 220.382 515.451C229.499 503.453 249.606 510.756 253.878 507.206C252.672 503.537 236.871 497.374 232.888 494.821C228.857 492.239 225.201 489.004 222.151 485.313C218.144 480.465 215.362 473.224 216.103 466.921C216.672 462.08 220.27 456.978 224.073 454.081C227.598 451.396 231.599 450.206 236 450.054C257.303 449.319 266.144 474.816 274.078 475.81C283.731 467.375 239.774 428.867 247.925 416.345C249.538 413.867 250.978 413.271 253.56 412.088C276.388 410.973 285.329 450.088 291.457 466.76C292.842 470.53 295.255 485.728 299.787 485.432C304.325 481.256 302.127 462.761 304.777 456.032C308.805 445.808 319.558 431.202 332.147 433.876C350.844 437.848 331.191 454.138 326.992 461.133C323.32 467.248 316.563 485.262 320.71 491.379C323.107 492.654 327.415 488.355 329.401 486.061C339.952 473.873 359.979 461.65 362.905 487.396C364.321 499.858 347.461 513.583 337.043 517.633C334.29 518.704 326.352 521.791 324.258 523.89C325.956 528.073 339.788 529.947 343.862 531.311C347.691 532.592 351.452 534.256 354.794 536.54C358.213 538.876 360.499 541.166 361.184 545.337C361.761 548.852 360.823 552.252 358.744 555.129C346.573 571.971 326.627 546.98 320.179 548.546C319.511 548.709 319.147 549.204 318.899 549.837C318.204 551.615 319.127 554.24 319.729 555.917C323.152 565.446 330.802 574.208 337.404 581.783C339.928 584.679 342.99 587.561 344.621 591.088C345.746 593.521 345.977 596.24 344.942 598.748C343.653 601.87 340.665 604.24 337.58 605.434C333.137 607.153 327.936 606.344 323.712 604.352C314.055 599.798 307.911 587.63 304.8 577.92C303.39 573.521 302.551 568.844 300.865 564.549C300.144 562.713 299.552 561.142 297.64 560.287C289.477 561.66 288.336 582.056 288.653 588.643Z"/><path fill="#517A17" d="M573.354 458.854C585.142 456.489 603.02 450.84 615.435 447.601L615.952 447.764C617.6 449.547 619.749 454.942 620.722 457.283C627.454 473.477 632.278 490.772 632.903 508.378C620.801 506.992 606.102 505.904 593.875 505.414L579.52 504.334C579.526 491.052 576.484 471.73 573.354 458.854Z"/><path fill="#517A17" d="M379.152 513.478C380.478 490.441 383.866 472.474 394.898 451.917C409.109 455.215 424.138 459.316 438.379 462.868C435.038 476.632 433.571 492.71 433.705 506.955L416.417 508.644C403.993 509.722 391.485 511.604 379.152 513.478Z"/><path fill="#517A17" d="M512.991 468.657C529.547 468.477 545.394 465.055 561.519 461.675C564.472 464.131 567.611 498.516 567.574 504.046L519.375 503.585L513.293 503.557L512.991 468.657Z"/><path fill="#517A17" d="M445.899 506.114C445.909 491.27 447.276 479.299 450.429 464.884C467.638 466.974 483.929 468.213 501.256 468.757L501.36 503.539L494.375 503.705C479.632 504.055 460.534 504.408 445.899 506.114Z"/><path fill="#2A7A17" d="M616.262 598.861C618.128 595.701 621.095 591.595 623.273 588.601C639.273 566.606 648.235 540.654 649.104 513.444C649.289 507.666 648.665 501.569 648.746 495.629C660.608 501.806 657.203 538.14 652.966 548.64C647.85 561.321 636.161 589.421 623.247 596.001C621.295 596.967 618.352 598.032 616.262 598.861Z"/><path fill="#517A17" d="M446.16 517.586C459.634 516.471 472.172 515.765 485.653 515.215C490.376 514.979 496.443 515.108 501.269 515.084C501.148 526.608 501.221 538.002 501.314 549.524C486.515 550.076 474.515 551.444 460.076 554.109C456.856 554.779 453.509 555.619 450.294 556.377C447.558 540.782 446.582 533.424 446.16 517.586Z"/><path fill="#517A17" d="M513.18 549.459L513.29 514.965C530.799 514.784 549.466 514.759 566.937 515.523C565.334 527.908 564.408 538.44 562.044 550.81L560.926 555.267C546.952 552.182 527.485 550.279 513.18 549.459Z"/><path fill="#517A17" d="M572.165 557.534C575.348 543.343 578.007 530.35 578.579 515.783C597.73 516.621 614.241 517.781 633.43 519.939C631.61 537.983 629.233 547.699 621.325 564.136C620.115 566.592 618.971 569.093 617.814 571.575C603.513 566.173 587.053 560.839 572.165 557.534Z"/><path fill="#517A17" d="M379.811 525.479C395.528 522.81 412.915 520.712 428.728 518.68C429.654 518.507 432.881 518.377 433.99 518.304C434.447 532.479 435.346 545.313 438.992 559.14C426.548 563.681 413.945 567.422 402.061 573.415C400.585 574.159 395.608 576.687 394.179 576.831L393.349 575.812C384.436 555.321 382.541 547.6 379.811 525.479Z"/><path fill="#517A17" d="M453.558 567.924C469.879 564.434 476.52 563.007 493.455 561.712C495.859 561.507 498.912 561.539 501.374 561.492L501.228 628.523C489.763 623.529 485.906 621.358 477.229 612.424C466.2 599.07 458.675 584.431 453.558 567.924Z"/><path fill="#517A17" d="M512.961 627.746C512.312 606.909 513.504 582.748 513.351 561.386C529.798 561.497 541.64 563.338 557.761 566.213C553.007 581.032 546.993 594.606 538.082 607.456C531.031 616.433 523.677 623.327 512.961 627.746Z"/><path fill="#2A7A17" d="M646.566 587.275C656.589 573.301 670.359 564.633 687.193 561.631C693.503 560.694 709.962 563.245 709.86 570.987C707.649 573.124 700.926 574.076 697.802 574.218C686.506 574.731 676.522 577.161 665.875 580.749C659.45 583.054 653.177 585.69 646.566 587.275Z"/><path fill="#698D61" d="M792.646 743.785C789.466 742.469 787.808 740.413 786.109 737.452C769.485 708.48 769.574 618.548 778.364 586.576C780.54 578.659 783.262 570.752 790.747 566.495C821.645 566.328 807.959 694.112 805.063 713.122C803.622 722.582 802.058 739.675 792.646 743.785Z"/><path fill="#517A17" d="M527.717 634.265C549.919 618.551 561.676 594.29 569.428 568.856C584.306 572.767 595.607 575.999 609.908 581.457C595.897 600.446 578.495 612.396 557.68 622.658C546.509 627.697 539.272 630.546 527.717 634.265Z"/><path fill="#2A7A17" d="M402.666 626.222C391.334 625.321 382.86 622.36 374.576 614.177C364.4 604.126 361.409 580.359 372.487 570.312C375.638 570.414 377.725 571.026 378.18 574.322C380.528 591.336 385.006 606.47 399.16 617.497C400.76 618.744 408.053 623.696 408.116 625.453C406.523 626.39 404.574 626.192 402.666 626.222Z"/><path fill="#517A17" d="M400.319 588.672C411.691 581.405 427.7 575.553 440.624 571.52C440.959 571.508 441.609 571.425 441.766 571.868C450.293 595.859 462.208 620.055 483.947 634.599C471.055 631.987 463.61 631.055 450.748 626.518C429.299 618.63 413.639 607.152 400.319 588.672Z"/><path fill="#698D61" d="M721.622 733.111C721.45 731.92 721.585 732.354 720.925 731.317L719.955 731.253C719.403 731.621 718.851 731.99 718.299 732.359C717.076 753.162 718.967 774.085 709.488 793.445C703.355 805.972 687.117 810.69 684.064 793.706C681.333 778.511 685.288 763.082 686.963 747.879C692.037 701.844 697.198 654.41 694.646 608.102C693.679 590.724 691.367 592.765 709.667 586.824C717.594 584.251 724.915 581.891 733.16 580.666C749.867 579.199 756.94 592.763 760.163 607.033C765.133 629.042 763.986 655.036 758.172 676.779C756.06 684.674 751.463 693.334 747.216 700.254C747.615 704.328 749.252 711.657 750.054 715.875L754.954 742.919C757.674 758.725 763.181 785.338 753.521 799.702C751.508 802.58 747.406 805.077 743.937 805.462C734.999 806.583 729.769 794.675 728.131 787.416C724.149 769.773 724.145 751.037 721.622 733.111ZM724.523 630.581C722.898 631.454 719.573 633.159 719.39 635.023C718.305 646.072 718.132 664.826 718.604 675.701C721.726 673.979 723.446 672.859 726.05 670.236C733.012 662.865 736.939 653.834 736.683 643.596C736.478 635.425 733.255 630.168 724.523 630.581Z"/><path fill="#2A7A17" d="M249.794 623.448C241.031 616.425 237.896 600.943 246.589 592.743C251.532 594.909 250.948 604.177 251.552 609.074C251.971 612.471 253.982 621.263 252.901 623.41C251.089 624.111 252.063 623.925 249.794 623.448Z"/><path fill="#698D61" d="M678.35 758.026C676.128 776.324 670.125 787.23 652.953 795.55C642.774 800.721 603.066 810.206 605.546 788.732C611.335 738.408 619.635 688.304 620.388 637.531C620.462 632.564 620.141 617.72 621.836 613.976C626.002 610.154 668.907 595.547 675.087 594.642C686.56 593.732 687.509 614.67 687.556 622.519C687.582 626.942 687.112 638.864 682.086 640.871C680.115 641.659 672.744 640.164 670.258 640.615C660.664 641.53 651.665 644.331 642.657 647.57C642.049 655.11 641.557 662.041 641.3 669.594C646.368 667.882 654.262 664.688 658.849 663.392C677.562 658.103 672.788 696.978 666.082 705.315C658.544 714.685 647.597 716.472 636.87 718.391L633.902 746.081C660.541 752.231 673.811 727.309 678.2 726.874C681.59 731.259 679.288 751.991 678.35 758.026Z"/><path fill="#2A7A17" d="M439.13 644.22C437.651 644.672 434.518 645.406 432.977 645.686C402.976 651.125 366.289 651.799 339.812 634.91C337.146 633.209 332.87 630.283 332.228 627.237C332.832 625.04 332.535 625.793 334.291 624.027C342.39 623.129 354.204 630.494 362.277 633.162C378.36 638.565 395.675 641.089 412.641 639.816C421.173 639.176 436.323 636.263 444.409 640.716L444.526 641.567C442.96 643.058 441.198 643.466 439.13 644.22Z"/><path fill="#698D61" d="M541.657 641.851C545.437 635.838 576.497 626.8 584.628 625.671C600.78 624.237 609.69 635.219 611.446 650.075C613.512 667.559 608.973 687.164 601.646 703.009C598.491 709.833 593.412 716.586 588.898 722.562C597.575 743.397 604.717 776.115 592.47 797.185C586.608 804.725 581.977 807.249 573.816 802.466C558.743 793.632 570.819 750.36 561.647 743.628L560.977 743.979L560.612 745.517C557.353 763.047 558.181 780.11 546.995 795.768C535.153 812.345 519.225 804.768 521.32 785.586C522.674 773.185 528.961 761.209 531.623 749.002C540.175 714.619 545.58 677.25 541.657 641.851ZM570.196 666.564C567.654 667.628 566.139 668.209 563.775 669.709C562.946 679.171 561.479 693.218 561.603 702.371C564.764 701.021 566.11 700.478 569.012 698.606C575.464 693.715 580.394 687.191 581.548 679.034C582.934 669.239 579.436 665.97 570.196 666.564Z"/><path fill="#698D61" d="M218.463 632.114C220.136 629.182 220.594 628.41 223.444 626.6C230.055 626.018 231.494 626.363 236.74 631.094C254.533 647.14 279.633 650.509 299.03 663.287C301.892 665.173 303.154 672.588 302.998 675.886C302.059 687.032 305.321 701.843 288.171 694.374C278.268 690.163 267.5 686.255 257.288 682.694C253.951 681.53 249.985 680.285 247.249 683.02C246.575 685.714 247.598 691.413 249.078 693.792C252.793 699.454 264.022 701.843 270.798 703.25C288.093 706.842 292.639 720.388 287.023 737.179C280.643 739.256 272.382 739.555 265.841 738.4C250.19 735.639 245.598 739.086 251.34 755.468C257.727 768.746 286.778 760.928 297.755 758.582C305.14 761.828 304.188 765.642 304.679 772.955C305.102 779.247 304.701 788.159 299.624 792.737C288.629 802.653 270.586 805.488 256.285 806.084C246.658 806.317 231.238 804.411 224.421 796.801C219.705 791.536 220.266 773.011 220.107 766.005L219.54 732.619L218.463 632.114Z"/><path fill="#1A2E0E" d="M718.604 675.701C718.132 664.826 718.305 646.072 719.39 635.023C719.573 633.159 722.898 631.454 724.523 630.581C733.255 630.168 736.478 635.425 736.683 643.596C736.939 653.834 733.012 662.865 726.05 670.236C723.446 672.859 721.726 673.979 718.604 675.701Z"/><path fill="#698D61" d="M475.318 805.931C470.096 805.35 467.736 805.025 463.127 801.683C453.032 794.365 448.72 777.505 447.359 765.689C443.573 732.838 451.311 694.419 471.945 668.135C480.084 657.767 490.374 649.218 503.74 647.678C520.959 647.584 529.281 667.34 530.683 681.981C534.057 717.209 525.41 757.314 505.049 786.534C498.262 796.273 487.145 804.358 475.318 805.931ZM492.56 688.017C477.256 697.255 473.29 728.864 473.27 745.13C473.263 751.492 473.848 765.215 483.193 763.395C499.734 752.702 513.092 685.378 492.56 688.017Z"/><path fill="#698D61" d="M431.003 802.691C425.762 804.479 403.782 809.65 403.485 802.294C402.647 781.529 390.836 764.007 392.831 742.76C394.206 728.124 395.733 716.952 398.161 702.879C400.103 691.617 398.687 680.934 401.746 670.217C402.491 667.809 425.424 665.59 428.747 665.209C443.286 663.082 431.806 690.855 430.043 696.974C425.039 714.339 419.123 731.803 418.892 750.081C418.846 753.688 418.585 759.969 421.665 762.742C427.707 767.222 434.627 757.492 439.241 756.965C441.296 756.73 442.685 777.758 443.175 780.307C445.907 794.511 443.846 797.102 431.003 802.691Z"/><path fill="#698D61" d="M390.638 803.59C385.295 805.342 384.039 805.252 378.751 805.814C353.639 808.482 359.954 766.781 352.186 759.518C343.669 758.903 351.052 795.311 340.795 800.887C331.692 806.456 303.524 811.029 307.516 792.242C309.976 778.961 313.428 760.296 322.133 749.704C334.574 734.569 328.104 731.869 317.892 718.594C307.977 705.706 307.249 687.652 307.91 672.124C308.039 669.1 310.534 667.063 312.897 665.559C321.46 664.878 337.516 666.236 341.148 675.257C344.161 682.742 343.758 714.134 349.929 717.533L351.034 717.049C356.302 710.101 353.666 690.057 356.854 680.669C357.642 677.384 359.914 672.932 363.259 671.495C369.544 668.795 388.039 666.561 390.95 675.115C395.309 687.919 388.692 705.225 381.971 716.261C378.4 722.126 373.576 727.149 371.292 733.669C368.327 742.786 382.027 756.521 386.362 765.806C390.322 774.287 397.357 789.911 395.27 799.683C394.836 801.715 392.318 802.766 390.638 803.59Z"/><path fill="#1A2E0E" d="M563.775 669.709C566.139 668.209 567.654 667.628 570.196 666.564C579.436 665.97 582.934 669.239 581.548 679.034C580.394 687.191 575.464 693.715 569.012 698.606C566.11 700.478 564.764 701.021 561.603 702.371C561.479 693.218 562.946 679.171 563.775 669.709Z"/><path fill="#1A2E0E" d="M483.193 763.395C473.848 765.215 473.263 751.492 473.27 745.13C473.29 728.864 477.256 697.255 492.56 688.017C513.092 685.378 499.734 752.702 483.193 763.395Z"/><path fill="#698D61" d="M793.588 805.036C790.779 804.662 788.052 804.26 785.522 802.85C774.021 796.441 767.492 777.658 774.183 765.941C777.155 760.737 781.171 758.887 786.645 757.561C808.957 756.803 817.277 801.312 793.588 805.036Z"/></svg>